<svg xmlns="http://www.w3.org/2000/svg" width="350" height="234" viewBox="0 0 350 234" version="1.1"><path d="" stroke="none" fill="#080404" fill-rule="evenodd"/><path d="M 129.251 1.516 C 120.494 3.419, 113.572 7.414, 105.911 14.987 C 95.437 25.342, 90 39.632, 90 56.811 L 90 64.726 85.178 69.237 C 76.962 76.922, 67.429 82.416, 41.089 94.645 C 12.685 107.833, 8.783 110.617, 3.444 121.500 C 0.704 127.084, 0.500 128.297, 0.500 139 C 0.500 150.238, 0.584 150.671, 4.195 158 C 6.227 162.125, 9.352 167.254, 11.139 169.397 C 15.917 175.128, 24.884 180.511, 32.939 182.485 C 44.126 185.226, 47.621 188.065, 53.934 199.533 C 64.820 219.310, 80.223 230.101, 101.954 233.174 C 116.086 235.172, 119.539 231.752, 109.250 225.947 C 102.098 221.911, 91.086 211.427, 85.675 203.500 C 77.012 190.810, 74.596 178.926, 79.250 171.898 C 83.956 164.791, 114.441 153, 128.109 153 C 130.095 153, 133.057 154.568, 137.271 157.849 C 145.358 164.145, 151.099 167.386, 158.500 169.834 C 183.117 177.976, 207.968 167.654, 218.863 144.763 C 224.401 133.126, 225.504 127.664, 225.477 112 C 225.452 97.722, 224.061 89.411, 219.409 75.733 C 218.077 71.817, 217.328 68.306, 217.744 67.931 C 218.503 67.246, 242.913 59, 244.180 59 C 244.552 59, 247.241 66.200, 250.155 75 C 253.069 83.800, 255.785 91, 256.191 91 C 257.287 91, 350.166 22.832, 349.702 22.369 C 349.484 22.150, 333.418 27.385, 314 34 C 294.582 40.615, 278.600 45.909, 278.484 45.764 C 278.368 45.619, 275.900 38.300, 273 29.500 C 270.100 20.700, 267.589 13.339, 267.422 13.142 C 267.254 12.945, 254.398 22.123, 238.852 33.538 C 213.758 51.964, 210.470 54.091, 209.543 52.503 C 192.745 23.693, 172.420 6.161, 150.412 1.499 C 142.051 -0.272, 137.468 -0.269, 129.251 1.516 M 133 19.935 C 120.261 23.824, 112.395 34.063, 109.936 49.956 C 108.598 58.602, 109.263 67.819, 112.115 80.140 L 114.115 88.779 118.915 86.752 C 125.574 83.938, 129.943 84.890, 135.397 90.345 C 140.226 95.174, 142.568 101.728, 141.721 108.042 C 141 113.422, 138.682 116.725, 134.201 118.760 C 132.165 119.684, 130.324 120.555, 130.110 120.694 C 129.388 121.162, 137.880 131.771, 143.213 137.062 C 154.225 147.987, 164.847 153, 176.985 153 C 196.366 153, 208.645 134.562, 206.640 108.472 C 205.992 100.052, 202.432 84.352, 199.675 77.760 L 198.110 74.020 186.972 78.010 C 180.846 80.204, 175.126 82, 174.262 82 C 173.397 82, 177.372 78.566, 183.095 74.370 C 188.818 70.173, 193.714 66.546, 193.976 66.310 C 194.866 65.508, 188.530 54.527, 182.719 46.802 C 167.523 26.599, 147.180 15.606, 133 19.935" stroke="none" fill="#040404" fill-rule="evenodd"/></svg>